<svg version="1.1" xmlns="http://www.w3.org/2000/svg" xmlns:xlink="http://www.w3.org/1999/xlink"
    class="thumbnail-icon" viewBox="-47.66600036621094 0 295.33197021484375 200.00001525878906">
    <g
        data-paper-data="{&quot;fillRule&quot;:&quot;evenodd&quot;,&quot;isIcon&quot;:true,&quot;iconStyle&quot;:&quot;standalone&quot;,&quot;selectedEffects&quot;:{&quot;container&quot;:&quot;&quot;,&quot;transformation&quot;:&quot;&quot;,&quot;pattern&quot;:&quot;&quot;},&quot;bounds&quot;:{&quot;x&quot;:184.59689278604972,&quot;y&quot;:116.41379580053027,&quot;width&quot;:180.80621442790053,&quot;height&quot;:122.44268643159356},&quot;iconType&quot;:&quot;initial&quot;,&quot;initialText&quot;:&quot;D&quot;,&quot;rawInitialId&quot;:875,&quot;disableIconEffects&quot;:&quot;true&quot;,&quot;monogramSpecial&quot;:&quot;multisegment-rectangle&quot;}">
        <path
            d="M0.13033,0h-33.02972c-8.15537,0 -14.76661,6.61129 -14.76661,14.76667v170.46675c0,8.15534 6.61124,14.76658 14.76661,14.76658h32.68766c1.72818,-2.96 3.16132,-6.83672 3.70391,-11.90083v-169.91736c0,-8.84931 -1.47994,-14.4427 -3.36185,-18.18182zM141.59631,200c17.84242,-7.13846 32.48017,-18.39292 42.39174,-31.73554c16.52893,-21.81818 21.4876,-45.61983 21.4876,-67.10744v-5.95041c0,-33.71901 -18.18182,-64.79339 -40.33058,-81.32231c-8.18209,-6.01625 -16.71433,-10.54325 -25.27824,-13.8843h93.03251c8.15537,0 14.76667,6.61129 14.76667,14.76667v170.46675c0,8.15534 -6.61129,14.76658 -14.76667,14.76658zM136.05416,91.90083c0,-27.7686 -15.86777,-57.52066 -51.57025,-57.85124h-11.23967v130.24793h11.57025c38.67769,0 51.23967,-36.69421 51.23967,-72.39669z"
            fill-rule="evenodd" fill="#c2c1ff"></path>
    </g>
</svg>