<?xml version="1.0" standalone="no"?>
<!DOCTYPE svg PUBLIC "-//W3C//DTD SVG 20010904//EN" "http://www.w3.org/TR/2001/REC-SVG-20010904/DTD/svg10.dtd">
<svg version="1.0" xmlns="http://www.w3.org/2000/svg"
    width="1079.000000pt" height="1079.000000pt" viewBox="0 0 1079.000000 1079.000000"
    preserveAspectRatio="xMidYMid meet">

    <g transform="translate(0.000000,1079.000000) scale(0.100000,-0.100000)"
        fill="#c2c1ff" stroke="none">
        <path
            d="M0 5395 l0 -5395 5395 0 5395 0 0 5395 0 5395 -5395 0 -5395 0 0
-5395z m3048 2435 c56 -49 145 -93 249 -122 78 -22 85 -22 1228 -29 1231 -6
1228 -6 1464 -59 284 -63 566 -182 801 -337 461 -304 815 -800 959 -1343 135
-509 107 -1093 -75 -1558 -281 -722 -876 -1249 -1620 -1438 -282 -71 -220 -68
-1436 -71 l-1098 -4 0 1516 0 1515 608 -2 607 -3 3 -927 2 -928 403 0 c353 0
413 3 492 19 317 66 576 273 733 586 96 194 131 337 139 570 8 275 -29 452
-142 680 -128 257 -317 435 -565 534 -170 67 -120 64 -1250 71 -1015 6 -1026
6 -1103 28 -237 66 -397 225 -442 440 -11 52 -15 161 -15 485 0 229 3 417 6
417 3 0 27 -18 52 -40z" />
    </g>
</svg>